Coordinates
version=1
nRows=9
nColumns=24
inDegrees=yes

Units are S.I. units (second, meters, Newtons, ...)
Angles are in degrees.

endheader
time	pelvis_tilt	pelvis_list	pelvis_rotation	pelvis_tx	pelvis_ty	pelvis_tz	hip_flexion_r	hip_adduction_r	hip_rotation_r	knee_angle_r	ankle_angle_r	subtalar_angle_r	mtp_angle_r	hip_flexion_l	hip_adduction_l	hip_rotation_l	knee_angle_l	ankle_angle_l	subtalar_angle_l	mtp_angle_l	lumbar_extension	lumbar_bending	lumbar_rotation
      0.44800000	     -7.69779009	     -0.28470017	      5.84809456	     -0.76133705	      0.88797613	      0.29885294	     35.21951686	      1.27260292	     -7.45465363	    -16.71272032	      0.77022273	     -0.95848500	      5.30610261	     -7.32934205	      1.79119229	      1.18887145	    -10.94948149	     16.75644773	      2.80213448	      7.67783497	     -1.65749188	     -2.68496792	     -8.47801287
      0.45216667	     -7.74269742	     -0.29373478	      5.92159924	     -0.75522020	      0.88686073	      0.29890664	     35.13225620	      1.39144159	     -7.23234644	    -16.42337158	      0.64295181	     -1.27336591	      5.25019328	     -7.28265375	      1.70757497	      1.14231157	    -11.83216613	     16.88811022	      3.06324743	      7.76997905	     -1.54523805	     -2.64753218	     -8.47328857
      0.45633333	     -7.77298361	     -0.31468728	      5.98014550	     -0.74907569	      0.88580173	      0.29899236	     35.03958677	      1.52782265	     -7.01179967	    -16.25452215	      0.49978345	     -1.62525017	      5.20349478	     -7.20731661	      1.60016093	      1.00856913	    -12.79907626	     16.99811541	      3.43625254	      7.92616528	     -1.46355705	     -2.58169384	     -8.44926220
      0.46050000	     -7.82200664	     -0.34415502	      6.03957552	     -0.74292611	      0.88475985	      0.29908547	     34.97934536	      1.66710317	     -6.79613257	    -16.20551910	      0.32664078	     -2.00918264	      5.17654333	     -7.08088509	      1.48784687	      0.93797475	    -13.82905125	     17.08213019	      3.74123494	      8.10136384	     -1.36239075	     -2.49317669	     -8.40070529
      0.46466667	     -7.82830519	     -0.38854881	      6.07207997	     -0.73672055	      0.88382286	      0.29923930	     34.88036928	      1.83813404	     -6.59122962	    -16.25646111	      0.10951890	     -2.49126054	      5.15844349	     -6.96143240	      1.33573408	      0.70320272	    -14.93703841	     17.09504101	      4.21616097	      8.44001473	     -1.29941133	     -2.38420236	     -8.34298970
      0.46883333	     -7.89076714	     -0.42895789	      6.12172890	     -0.73052990	      0.88286694	      0.29937487	     34.83867925	      1.98816682	     -6.37923104	    -16.38085055	     -0.12889965	     -2.96663379	      5.15892244	     -6.74269549	      1.20040327	      0.58430183	    -16.11560287	     17.06101197	      4.52320200	      8.74337294	     -1.15007901	     -2.32079060	     -8.26185889
      0.47300000	     -7.89461015	     -0.49872036	      6.14147427	     -0.72429613	      0.88202636	      0.29957196	     34.75838694	      2.18545103	     -6.18219198	    -16.62802701	     -0.39458660	     -3.52781681	      5.18654186	     -6.54730227	      1.00820539	      0.32725218	    -17.37008998	     16.98705596	      5.01673032	      9.29499359	     -1.08957093	     -2.16464245	     -8.16149739
      0.47716667	     -7.98870519	     -0.54445726	      6.19735468	     -0.71810506	      0.88111929	      0.29968697	     34.80089680	      2.31577960	     -6.03699068	    -17.00831309	     -0.58150661	     -3.98307194	      5.20179935	     -6.22660298	      0.87992612	      0.33765462	    -18.66687752	     16.82326003	      5.15812427	      9.54136686	     -0.91202572	     -2.05128799	     -8.04842573
      0.48133333	     -7.94952743	     -0.65370855	      6.18204715	     -0.71182900	      0.88043500	      0.30001211	     34.68262027	      2.57794091	     -5.81699279	    -17.38400221	     -0.90672582	     -4.64143045	      5.27542195	     -5.98063660	      0.60858726	     -0.06040897	    -20.10171129	     16.65578776	      5.79683507	     10.38475681	     -0.90027857	     -1.86422131	     -7.89894862
